<?xml version="1.0" encoding="utf-8"?>
<!-- Generator: Adobe Illustrator 15.0.0, SVG Export Plug-In . SVG Version: 6.00 Build 0)  -->
<!DOCTYPE svg PUBLIC "-//W3C//DTD SVG 1.1//EN" "http://www.w3.org/Graphics/SVG/1.1/DTD/svg11.dtd">
<svg version="1.1" id="Camada_1" xmlns="http://www.w3.org/2000/svg" xmlns:xlink="http://www.w3.org/1999/xlink" x="0px" y="0px"
	 width="1403.839px" height="607.469px" viewBox="0 0 1403.839 607.469" enable-background="new 0 0 1403.839 607.469"
	 xml:space="preserve">
<path opacity="0.2" fill="#6D6D6D" enable-background="new    " d="M516.948,28.995c-130.53,0-236.346,105.816-236.346,236.346
	c0,130.531,105.816,236.347,236.346,236.347c130.529,0,236.346-105.816,236.346-236.347
	C753.294,134.811,647.478,28.995,516.948,28.995z M527.375,494.737c-120.933,0-218.968-98.035-218.968-218.969
	c0-120.933,98.035-218.968,218.968-218.968c120.933,0,218.968,98.035,218.968,218.968
	C746.343,396.702,648.307,494.737,527.375,494.737z"/>
<g>
	<path fill="#2F3E96" d="M164.104,571.381c4.264-42.434,8.361-83.199,12.922-128.578c-21.048,12.641-38.112,24.27-56.355,33.592
		c-63.727,32.564-106.247,11.35-110.535-59.574c-5.895-97.484,29.38-181.352,100.224-248.278
		c24.22-22.88,55.335-32.526,88.916-14.721c34.299,18.186,55.053,47.302,58.085,84.662c0.953,11.747-13.831,38.221-27.369,36.924
		c-5.951-0.57-15.194-5.655-18.632-13.136c-4.866-10.592-4.859-23.461-10.625-34.122c-6.399-11.832-15.76-25.699-28.281-31.627
		c-10.623-5.029-34.981,4.972-45.372,15.776c-54.39,56.557-73.477,127.167-67.047,203.52c3.472,41.227,39.261,54.232,71.673,27.883
		c19.823-16.115,36.128-36.777,52.888-56.359c11.113-12.984,22.616-29.547,40.246-19.496c9.428,5.375,11.566,23.535,19.423,41.469
		c16.351-27.262,34.617-54.219,49.072-83.08c9.264-18.498,27.498-30.343,49.676-24.746c44.23,11.162,65.263,44.941,55,88.949
		c-2.857,12.25-6.786,24.25-6.157,39.605c19.656-18.75,39.042-37.797,59.073-56.137c11.503-10.533,23.069-21.588,36.359-29.441
		c21.682-12.811,34.023-4.764,38.922,19.594c1.65,8.205,4.458,16.117,7.509,23.893c2.218,5.652,3.563,11.764,5.816,17.457
		c1.003,2.533,2.061,5.078,5.147,5.027c3.531-0.059,7.45-2.883,10.4-4.549c3.113-1.756,6.156-3.859,9.393-5.383
		c7.206-3.393,14.326-7.068,20.789-11.752c16.197-11.74,35.162-23.986,43.778-40.725c9.902-19.238,8.815-43.873,14.278-65.72
		c6.816-27.264,10.025-57.502,24.465-80.342c9.9-15.661,24.49-28.981,41.665-36.013c16.615-6.803,35.729-10.77,53.672-11.14
		c5.311-0.11,10.617,0.21,15.883,0.902c2.635,0.346,5.258,0.783,7.875,1.267c4.057,0.749,6.895,0.493,10.029,3.477
		c2.762,2.628,6.023,6.252,6.371,10.253c0.619,7.117,1.766,13.839,1.457,20.958c-0.174,3.997-0.754,8.437-1.217,12.339
		c-0.346,2.902-1.381,6.691-2.742,9.328c-2.205,4.273-10.469-1.076-13.209-2.314c-3.393-1.532-6.877-3.067-10.449-4.143
		c-36.75-11.075-65.902,4.256-76.011,41.283c-5.785,21.189-9.345,42.995-13.597,64.583c-0.682,3.465,0.26,7.25,0.513,12.055
		c26.351-6.455,51.529-15.305,77.343-17.961c15.973-1.643,39.904-5.952,43.701,20.695c3.209,22.527-10.619,33.465-39.09,32.611
		c-9.979-0.299-19.941-2.658-29.816-4.564c-30.193-5.832-53.566,3.85-62,27.748c-4.226,11.977-6.529,25.002-7.424,37.713
		c-2.025,28.77-2.952,57.6-4.691,86.387c-0.468,7.744-0.005,15.896-1.771,23.498c-1.535,6.609-3.625,16.154-10.387,15.957
		c-6.536-0.191-9.806-3.172-10.427-3.707c-3.538-3.057-5.079-8.215-5.498-13.146c-2.885-33.975-3.737-68.135-4.849-102.244
		c-0.533-16.383-0.092-32.797-0.092-58.332c-12.271,12.404-18.633,18.922-25.089,25.346c-16.335,16.25-31.185,34.486-49.422,48.217
		c-29.434,22.164-52.027,16.012-70.52-15.561c-16.505-28.178-21.334-28.438-47.209-7.879c-21.611,17.17-43.935,33.635-67.228,48.381
		c-7.2,4.559-25.759,5.01-26.918,1.998c-3.476-6.256-4.225-17.697-2.955-26.857c2.743-19.781,9.82-39.275,10.077-58.953
		c0.12-9.213-9.873-20.953-18.505-26.742c-3.613-2.422-16.864,6.229-23.547,12.264c-25.92,23.414-52.177,46.686-75.705,72.395
		c-8.898,9.721-11.671,25.637-15.544,39.213c-4.268,14.961-6.87,30.426-9.7,45.764C206.241,551.54,191.369,565.258,164.104,571.381z
		"/>
	<path fill="#2F3E96" d="M559.229,267.912c-1.394,24.423-21.661,43.116-45.754,42.196c-24.604-0.939-44.937-23.969-42.718-48.386
		c2.171-23.879,23.472-41.88,47.597-40.224C542.514,223.156,560.612,243.706,559.229,267.912z"/>
</g>
<g enable-background="new    ">
	<path fill="#1E1E1E" d="M271.007,500.295c5.631,0,11.855,2.34,11.855,10.195v2.065c0,4.491-2.416,7.06-5.332,8.325l5.972,17.07
		h-6.311l-4.996-15.211h-4.004v15.211h-5.969v-37.656H271.007z M277.045,511.301c0-4.085-2.605-5.246-5.147-5.246h-3.706v10.931
		h3.706c2.509,0,5.146-1.198,5.146-5.246L277.045,511.301z"/>
	<path fill="#1E1E1E" d="M287.021,520.036c0-7.21,4.54-9.47,8.566-9.47c4.027,0,8.62,2.206,8.62,9.47v8.877
		c0,7.264-4.593,9.47-8.62,9.47c-4.026,0-8.566-2.26-8.566-9.47V520.036z M300.104,499.62l-4.912,8.115h-4.014l3.057-8.115H300.104z
		 M299.165,522.545c0-5.902-1.481-7.417-3.563-7.417c-2.19,0-3.538,1.515-3.538,7.417v3.857c0.031,5.849,1.271,7.417,3.568,7.417
		c2.189,0,3.563-1.568,3.532-7.417V522.545z"/>
	<path fill="#1E1E1E" d="M315.883,527.369c-0.006,5.476,0.884,6.48,3.865,6.52h0.707v4.547h-2.042
		c-4.299-0.022-7.576-1.679-7.569-9.688v-13.163h-3.333v-4.534h3.333v-8.231h5.039v8.231h4.571v4.534h-4.572L315.883,527.369z"/>
	<path fill="#1E1E1E" d="M340.606,511.047v26.901h-3.569l-0.71-2.764c-1.291,2.218-3.414,3.251-5.866,3.251
		c-3.415,0-7.06-2.24-7.06-9.473v-17.916h5.042v15.406c0,5.902,1.417,7.417,3.56,7.417c2.039,0,3.559-1.271,3.569-6.102v-16.722
		H340.606z"/>
	<path fill="#1E1E1E" d="M344.5,500.29h5.052v37.662H344.5V500.29z"/>
	<path fill="#1E1E1E" d="M353.09,520.036c0-7.21,4.54-9.47,8.566-9.47s8.62,2.206,8.62,9.47v8.877c0,7.264-4.593,9.47-8.62,9.47
		s-8.566-2.26-8.566-9.47V520.036z M365.233,522.545c0-5.902-1.481-7.417-3.563-7.417c-2.19,0-3.538,1.515-3.538,7.417v3.857
		c0.031,5.849,1.271,7.417,3.568,7.417c2.19,0,3.563-1.568,3.533-7.417V522.545z"/>
	<path fill="#1E1E1E" d="M378.376,530.254c0.088,2.652,1.832,3.555,3.538,3.555c2.031,0,3.539-0.93,3.539-3.385
		c0-2.95-1.727-3.983-4.651-4.643c-3.354-0.611-6.991-2.665-6.991-7.451c0-5.495,3.704-7.765,8.15-7.765
		c4.252,0,8.105,2.652,8.222,7.946v0.507h-5.032v-0.445c-0.123-2.562-1.646-3.448-3.173-3.448c-1.763,0-3.146,0.743-3.146,2.896
		c0.055,2.271,2.053,3.075,3.617,3.481c6.348,1.355,8.05,4.724,8.05,8.652c0,5.785-3.767,8.227-8.582,8.227
		c-4.124,0-8.489-2.564-8.581-7.996v-0.764h5.046L378.376,530.254z"/>
	<path fill="#1E1E1E" d="M409.685,520.035c0-7.209,4.54-9.469,8.566-9.469c4.003,0,8.597,2.206,8.597,9.469v6.34h-12.1v1.618
		c0,4.564,1.424,5.813,3.552,5.827c1.84,0,3.383-1.034,3.525-4.722h5.027c-0.069,7.124-4.616,9.284-8.596,9.284
		c-4.026,0-8.566-2.26-8.566-9.47L409.685,520.035z M421.789,520.618c-0.031-4.312-1.663-5.475-3.524-5.489
		c-1.99,0.015-3.521,1.147-3.542,5.521v1.963h7.065L421.789,520.618z"/>
	<path fill="#1E1E1E" d="M446.324,520.035c0-7.209,4.54-9.469,8.566-9.469c4.003,0,8.597,2.206,8.597,9.469v6.34h-12.1v1.618
		c0,4.564,1.424,5.813,3.552,5.827c1.84,0,3.383-1.034,3.525-4.722h5.027c-0.069,7.124-4.616,9.284-8.596,9.284
		c-4.026,0-8.566-2.26-8.566-9.47L446.324,520.035z M458.428,520.618c-0.031-4.312-1.663-5.475-3.524-5.489
		c-1.99,0.015-3.521,1.147-3.542,5.521v1.963h7.065L458.428,520.618z"/>
	<path fill="#1E1E1E" d="M474.061,527.369c-0.006,5.476,0.884,6.48,3.865,6.52h0.707v4.547h-2.042
		c-4.299-0.022-7.576-1.679-7.569-9.688v-13.163h-3.333v-4.534h3.333v-8.231h5.039v8.231h4.571v4.534h-4.572L474.061,527.369z"/>
	<path fill="#1E1E1E" d="M482.34,502.032h5.55v5.104h-5.55V502.032z M482.588,511.05h5.052v26.901h-5.052V511.05z"/>
	<path fill="#1E1E1E" d="M508.836,511.024v35.697h-5.034v-10.83c-1.177,1.754-3.043,2.514-5.112,2.514
		c-3.415,0-7.06-2.231-7.06-9.465v-8.877c0-7.232,3.645-9.47,7.06-9.47c2.481,0,4.625,0.981,5.931,3.228l0.648-2.797H508.836z
		 M496.673,526.43c0,5.902,1.417,7.417,3.56,7.417c2.128,0,3.54-1.515,3.54-7.417v-3.857c0.031-5.849-1.273-7.417-3.509-7.417
		c-2.25,0-3.56,1.568-3.591,7.417V526.43z"/>
	<path fill="#1E1E1E" d="M529.827,511.047v26.901h-3.569l-0.71-2.764c-1.291,2.218-3.414,3.251-5.866,3.251
		c-3.415,0-7.06-2.24-7.06-9.473v-17.916h5.042v15.406c0,5.902,1.417,7.417,3.56,7.417c2.039,0,3.559-1.271,3.569-6.102v-16.722
		H529.827z"/>
	<path fill="#1E1E1E" d="M533.322,520.035c0-7.209,4.54-9.469,8.566-9.469c4.003,0,8.597,2.206,8.597,9.469v6.34h-12.1v1.618
		c0,4.564,1.424,5.813,3.552,5.827c1.84,0,3.383-1.034,3.525-4.722h5.027c-0.069,7.124-4.616,9.284-8.596,9.284
		c-4.026,0-8.566-2.26-8.566-9.47L533.322,520.035z M545.426,520.618c-0.031-4.312-1.663-5.475-3.524-5.489
		c-1.99,0.015-3.521,1.147-3.542,5.521v1.963h7.065L545.426,520.618z"/>
	<path fill="#1E1E1E" d="M561.059,527.369c-0.006,5.476,0.884,6.48,3.865,6.52h0.707v4.547h-2.042
		c-4.299-0.022-7.576-1.679-7.569-9.688v-13.163h-3.333v-4.534h3.333v-8.231h5.039v8.231h4.571v4.534h-4.572L561.059,527.369z"/>
	<path fill="#1E1E1E" d="M585.396,511.051v26.901h-3.566l-0.609-2.74c-1.268,2.208-3.366,3.17-5.817,3.17
		c-3.415,0-7.213-2.237-7.213-9.47v-8.877c0-7.232,3.798-9.47,7.213-9.47c2.435,0,4.523,0.952,5.79,3.084l0.637-2.6L585.396,511.051
		z M573.233,526.404c0.031,5.848,1.34,7.417,3.591,7.417c2.236,0,3.54-1.569,3.509-7.417v-3.858c0-5.901-1.412-7.417-3.54-7.417
		c-2.143,0-3.56,1.516-3.56,7.417V526.404z"/>
	<path fill="#1E1E1E" d="M593.745,530.254c0.088,2.652,1.832,3.555,3.538,3.555c2.031,0,3.539-0.93,3.539-3.385
		c0-2.95-1.727-3.983-4.651-4.643c-3.354-0.611-6.991-2.665-6.991-7.451c0-5.495,3.704-7.765,8.15-7.765
		c4.252,0,8.105,2.652,8.222,7.946v0.507h-5.032v-0.445c-0.123-2.562-1.646-3.448-3.173-3.448c-1.763,0-3.146,0.743-3.146,2.896
		c0.055,2.271,2.053,3.075,3.617,3.481c6.348,1.355,8.05,4.724,8.05,8.652c0,5.785-3.767,8.227-8.582,8.227
		c-4.124,0-8.489-2.564-8.581-7.996v-0.764h5.046L593.745,530.254z"/>
	<path fill="#1E1E1E" d="M689.651,528.576h-7.892l-2.17,9.376h-5.969l8.27-37.662h7.582l8.301,37.662h-5.969L689.651,528.576z
		 M688.919,522.583l-3.223-15.428l-3.253,15.428H688.919z"/>
	<path fill="#1E1E1E" d="M717.318,500.291v37.662h-3.567l-0.648-2.798c-1.305,2.246-3.449,3.228-5.931,3.228
		c-3.414,0-7.06-2.236-7.06-9.469v-8.878c0-7.232,3.646-9.469,7.06-9.469c2.069,0,3.935,0.759,5.112,2.515V500.29L717.318,500.291z
		 M705.154,526.404c0.03,5.848,1.34,7.417,3.591,7.417c2.236,0,3.54-1.569,3.51-7.417v-3.858c0-5.901-1.412-7.417-3.541-7.417
		c-2.143,0-3.56,1.516-3.56,7.417V526.404z"/>
	<path fill="#1E1E1E" d="M720.982,520.035c0-7.209,4.539-9.469,8.566-9.469c4.003,0,8.596,2.206,8.596,9.469v6.34h-12.1v1.618
		c0,4.564,1.425,5.813,3.553,5.827c1.839,0,3.383-1.034,3.524-4.722h5.026c-0.069,7.124-4.615,9.284-8.596,9.284
		c-4.026,0-8.565-2.26-8.565-9.47L720.982,520.035z M733.086,520.618c-0.031-4.312-1.663-5.475-3.524-5.489
		c-1.989,0.015-3.521,1.147-3.541,5.521v1.963h7.064L733.086,520.618z"/>
	<path fill="#1E1E1E" d="M746.166,530.254c0.088,2.652,1.832,3.555,3.538,3.555c2.03,0,3.539-0.93,3.539-3.385
		c0-2.95-1.727-3.983-4.651-4.643c-3.354-0.611-6.991-2.665-6.991-7.451c0-5.495,3.704-7.765,8.15-7.765
		c4.253,0,8.105,2.652,8.222,7.946v0.507h-5.032v-0.445c-0.123-2.562-1.646-3.448-3.173-3.448c-1.763,0-3.146,0.743-3.146,2.896
		c0.055,2.271,2.053,3.075,3.617,3.481c6.348,1.355,8.05,4.724,8.05,8.652c0,5.785-3.767,8.227-8.582,8.227
		c-4.123,0-8.488-2.564-8.581-7.996v-0.764h5.047L746.166,530.254z"/>
	<path fill="#1E1E1E" d="M761.732,502.032h5.55v5.104h-5.55V502.032z M761.98,511.05h5.053v26.901h-5.053V511.05z"/>
	<path fill="#1E1E1E" d="M791.283,511.05l-7.315,26.872h-5.831l-7.322-26.872h5.075l5.159,19.12l5.158-19.12H791.283z"/>
	<path fill="#1E1E1E" d="M810.072,511.051v26.901h-3.567l-0.608-2.74c-1.269,2.208-3.367,3.17-5.817,3.17
		c-3.415,0-7.213-2.237-7.213-9.47v-8.877c0-7.232,3.798-9.47,7.213-9.47c2.435,0,4.523,0.952,5.79,3.084l0.636-2.6L810.072,511.051
		z M797.908,526.404c0.031,5.848,1.341,7.417,3.591,7.417c2.236,0,3.541-1.569,3.51-7.417v-3.858c0-5.901-1.411-7.417-3.54-7.417
		c-2.143,0-3.561,1.516-3.561,7.417V526.404z"/>
	<path fill="#1E1E1E" d="M818.42,530.254c0.088,2.652,1.832,3.555,3.538,3.555c2.03,0,3.539-0.93,3.539-3.385
		c0-2.95-1.727-3.983-4.651-4.643c-3.354-0.611-6.991-2.665-6.991-7.451c0-5.495,3.704-7.765,8.15-7.765
		c4.253,0,8.105,2.652,8.222,7.946v0.507h-5.032v-0.445c-0.123-2.562-1.646-3.448-3.173-3.448c-1.763,0-3.146,0.743-3.146,2.896
		c0.055,2.271,2.053,3.075,3.617,3.481c6.348,1.355,8.05,4.724,8.05,8.652c0,5.785-3.767,8.227-8.582,8.227
		c-4.123,0-8.488-2.564-8.581-7.996v-0.764h5.047L818.42,530.254z"/>
</g>
<g enable-background="new    ">
	<path fill="#D12222" d="M972.158,277.646c2.113-0.644,12.844-4.349,14.781-0.445c1.293,2.602-2.127,5.516-3.918,6.81
		c-6.674,5.342-21.639,13.583-29.121,17.298c-10.408,5.168-19.982,1.405-25.311-9.33c-8.076-16.264,6.752-32.952,17.016-44.13
		c15.967-17.658,37.768-30.916,58.912-41.414c29.277-14.535,67.488-29.857,86.223,7.877c5.977,12.036,3.975,30.871-3.043,42.871
		c-7.67,12.321-20.695,23.654-32.09,32.556l-43.789,35.121l0.322,0.65c27.961-8.204,68.449-24.656,88.816,9.834
		c12.447,20.986-1.061,88.516-84.012,129.699c-43.914,21.803-67.111,11.83-71.635,2.722c-4.037-8.133,4.502-41.567,12.635-45.604
		c2.277-1.131,5.525-1.121,6.816,1.48c0.646,1.303-1.324,9.58-2.635,13.475c12.834-1.102,23.557-2.371,35.268-8.185
		c47.818-23.741,82.885-75.616,77.232-87.003c-9.209-17.729-57.998,4.873-70.033,10.848c-11.061,5.492-17.895,9.695-27.66,16.977
		c-2.279,1.943-6.186,4.693-8.787,5.985c-4.229,2.1-6.982-0.183-8.271-4.409c-7.086-21.621-4.604-37.856,18.66-51.435
		c17.572-10.345,100.088-70.371,89.105-92.491c-6.945-13.987-31.02-1.224-40.127,3.298c-24.072,11.952-44.908,28.784-63.156,48.386
		l0.324,0.651L972.158,277.646z"/>
	<path fill="#D12222" d="M1273.806,147.751c31.01,62.457,16.721,175.786-58.93,220.239c-28.797,17.135-61.059-3.746-74.787-31.396
		c-18.25-36.758-14.855-88.723-4.025-127.349c12.959-45.766,50.133-95.849,71.275-106.347c13.338-6.622,37.029,1.079,40.582,8.235
		c1.777,3.578-6.029,7.455-7.176,10.862C1257.644,119.283,1267.345,134.74,1273.806,147.751z M1245.888,256.494
		c6.4-23.045,14.83-75.483,4.172-96.953c-3.393-6.831-12.781-17.577-21.891-13.055c-8.457,4.199-10.939,20.434-14.193,22.048
		c-2.602,1.292-5.189-2.288-6.16-4.24c-42.24,61.925-45.006,120.876-30.322,155.351c2.744,6.343,13.412,24.563,22.521,20.041
		c9.758-4.845,24.439-27.543,28.529-38.088L1245.888,256.494z"/>
</g>
<g enable-background="new    ">
	<path fill="#5B5B5B" d="M1152.832,455.09c-1.4,2.963-6.029,13.117-8.816,14.502c-3.395,1.686-14.398-2.824-17.771-9.008
		c-8.008-14.912,15.807-46.079,29.689-53.425c5.516-2.89,10.047,0.452,10.77,1.907c0.721,1.455-1.828,4.232-2.738,5.137
		c2.783-0.174,4.658,0.559,5.982,3.225c1.926,3.881-4.406,17.604-1.578,23.301c1.023,2.061,3.262,2.006,5.201,1.043
		c5.092-2.527,8.932-12.142,12.4-18.246l3.197,4.006c-2.264,8.527-12.068,29.564-18.01,32.514c-4,1.986-7.262-0.02-9.008-3.537
		c-1.926-3.879-2.207-11.748-2.256-15.803l-0.363-0.123L1152.832,455.09z M1136.599,459.221c0.422,0.547,1.99,2.488,3.627,1.221
		c2.184-1.688,6.123-3.191,18.09-39.354l-0.363-0.121C1133.494,444.141,1133.65,453.282,1136.599,459.221z"/>
	<path fill="#5B5B5B" d="M1241.019,391.663l3.617,4.854c-3.596,8.887-8.68,29.998-17.529,34.393
		c-4.605,2.287-8.715-0.51-10.762-4.632c-3.609-7.272-1.037-18.524,0.074-26.027l-0.363-0.122
		c-4.443,8.704-7.496,18.076-9.459,27.816c-0.676,3.207-2.213,11.373-5.484,12.998c-5.334,2.648-10.461-4.326-12.629-8.387
		c-4.516-8.186-2.957-24.221,1.125-33.652c0.914-2.115,1.943-2.779,4.006-3.803c7.395-3.367,7.631-1.37,7.992-0.643
		c2.346,4.729-6.85,24.557-5.406,27.465c0.361,0.728,1.27,1.033,1.996,0.672c0.85-0.422,1.398-2.055,1.582-2.9
		c3.561-17.18,18.463-43.166,21.979-44.912c0.484-0.24,1.514,0.004,3.084,1.34c1.629,1.458,3.439,3.279,5.068,5.645
		c2.346,4.727-7.99,21.344-3.838,29.709c0.543,1.09,2.055,1.701,3.266,1.1c2.91-1.445,6.137-8.336,7.416-11.239L1241.019,391.663z"
		/>
	<path fill="#5B5B5B" d="M1292.396,373.409c-2.023,9.618-5.914,15.176-14.764,19.569c-2.504,7.741-6.518,14.569-14.154,18.362
		c-6.305,3.129-15.252-0.285-21.215-11.076c-4.758-8.973-3.281-17.262,0.92-25.844c3.898-8.585,11.002-16.191,18.215-20.227
		c2.607-1.445,7.209-2.221,8.834,1.053c0.904,1.818-0.189,3.27-1.162,4.658c4.119-0.836,6.111,1.35,7.916,4.986
		c2.648,5.334,2.33,10.78,2.373,16.652c5.816-1.68,6.924-7.971,9.297-12.625L1292.396,373.409z M1252.593,386.069
		c-1.344,3.99-1.299,9.861,0.566,13.62c1.746,3.516,4.59,3.462,7.621,1.958c4-1.986,5.402-5.553,6.928-9.484
		c-1.813-1.518-3.201-2.793-4.225-4.854c-3.129-6.305-1.223-16.77-1.828-16.771C1258.738,375.008,1254.484,380.747,1252.593,386.069
		z"/>
	<path fill="#5B5B5B" d="M1331.802,350.52l3.5,4.004c-3.723,11.066-11.461,28.659-21.4,32.988c-8.301,3.67-19.561,3.518-26.137-4.25
		c-0.365,1.089-0.793,2.359-1.885,2.9c-1.211,0.602-2.662-0.189-3.203-1.279c-0.783-1.576,0.314-4.236,0.803-5.688l14.328-37.185
		c-1.742-4.121-1.365-9.145,2.998-11.311c3.639-1.807,4.906-1.076,6.955,2.139c2.773,4.365,6.637,7.584,9.285,12.918
		c4.936,9.94,0.605,21.309-4.805,29.887c8.42-2.518,11.344-8.502,15.057-15.936L1331.802,350.52z M1291.849,373.528
		c4.605-1.982,9.139,0.451,13.006,2.459c5.047-8.098,5.963-11.121,2.836-18.332c-1.627-2.366-3.736-5.398-6.512-9.158
		L1291.849,373.528z"/>
</g>
</svg>
