<?xml version="1.0" encoding="utf-8"?>
<!-- Generator: Adobe Illustrator 17.0.0, SVG Export Plug-In . SVG Version: 6.00 Build 0)  -->
<!DOCTYPE svg PUBLIC "-//W3C//DTD SVG 1.1//EN" "http://www.w3.org/Graphics/SVG/1.1/DTD/svg11.dtd">
<svg version="1.1" id="Camada_1" xmlns="http://www.w3.org/2000/svg" xmlns:xlink="http://www.w3.org/1999/xlink" x="0px" y="0px"
	 width="296.246px" height="186.74px" viewBox="394.198 2.261 296.246 186.74"
	 enable-background="new 394.198 2.261 296.246 186.74" xml:space="preserve">
<g>
	<path fill-rule="evenodd" clip-rule="evenodd" fill="#FFFFFF" d="M592.069,7.742c-1.106,4.74,1.807,6.371,3.369,8.759
		c1.245,1.903,1.209,3.714,4.267,3.369c2.996-0.338,7.787-6.515,8.086-10.107c0.244-2.935-1.333-3.835-2.246-5.84
		c-1.85-0.996-4.623-2.263-7.636-1.348C595.385,3.725,592.665,5.189,592.069,7.742z M530.754,11.56
		c-4.447-2.985-7.688,5.827-2.471,6.064c1.641,0.075,2.424-1.36,3.594-2.246C531.829,13.189,531.645,12.159,530.754,11.56z
		 M658.999,35.368c2.732-1.488,5.554-2.808,7.636-3.594c1.598-0.603,4.227-3.504,4.043-5.39c-0.179-1.825-2.334-3.167-4.492-3.144
		c-3.973,0.041-7.859,5.664-11.679,5.84c-3.822,3.888-9.169,9.502-17.069,9.209c-2.38-0.088-4.72-1.605-7.412-1.572
		c-1.894,0.023-4.412,0.747-6.513,1.348c-1.854,0.53-4.595,2.036-6.064,1.797c-0.878-0.143-3.29-2.524-4.267-3.369
		c-4.395-3.798-8.73-7.133-13.251-10.107c-6.439-4.234-12.393-8.493-22.235-8.984c-9.971-0.497-18.891,0.655-27.85,1.572
		c-5.307,0.544-10.596,2.19-16.396,2.246c-7.13,0.068-14.416-1.587-21.337-1.123c-4.84,0.325-9.917,1.111-13.925,3.144
		c-9.111,4.622-15.05,17.473-10.332,31.219c-11.024,1.728-20.921,5.41-27.401,11.454c-4.952,4.62-9.077,11.162-10.556,18.192
		c-0.313,1.489,0.231,3.595-1.123,4.717c-2.389,0.225-4.484-2.205-7.412-2.92c-3.286-0.802-6.864-1.205-9.882-2.021
		c-2.663-0.72-7.093-4.239-7.187,0.898c1.152,1.467,3.139,1.007,4.717,1.348c1.595,0.344,3.332,1.242,5.166,1.572
		c1.318,0.238,2.794,0.093,4.043,0.449c1.928,0.55,3.22,1.957,5.39,3.144c1.997,1.092,4.733,2.184,5.166,3.594
		c0.98,3.191-0.766,7.12,0,10.107c0.251,0.976,1.174,2.341,1.797,3.594c0.67,1.349,1.104,2.831,1.572,3.818
		c0.668,1.41,2.883,3.625,2.695,4.941c-0.367,2.579-7.857,5.061-10.781,6.963c-1.192,0.775-2.408,2.231-3.369,2.695
		c-1.445,0.697-3.339,0.988-4.267,1.797c-1.338,1.165-2.564,3.447-2.695,5.166c2.835,0.572,5.233-1.129,6.963-3.144
		c0.805-0.937,1.035-2.292,1.797-3.144c0.967-1.082,2.974-2.294,4.267-2.92c3.36-1.624,7.24-2.982,11.005-4.267
		c4.769,4.14,10.799,7.019,17.294,9.433c-0.949,1.781-2.048,2.41-3.369,3.818c-0.635,0.677-3.099,2.519-2.92,4.492
		c0.128,1.409,2.229,3.057,3.594,3.144c2.571,0.165,5.013-2.936,7.636-4.492c1.053-0.624,5.351-3.116,6.513-2.695
		c1.26,0.456,1.686,2.558,0.674,4.043c-0.811,1.19-2.511,0.712-3.144,2.021c-1.198,2.477,0.479,4.1,1.348,6.064
		c2.148-0.88,2.992-3.941,4.492-5.166c0.424-0.346,2.363-0.931,2.92-1.348c0.684-0.511,2.113-2.393,2.471-3.369
		c0.733-1.999,0.195-4.03,1.797-4.267c1.237-0.183,4.206,3.68,6.064,5.39c6.104,5.619,13.338,10.58,19.989,14.599
		c11.849,7.16,26.048,13.621,43.797,13.7c12.004,0.054,20.56-3.19,28.748-6.513c5.9,8.124,9.686,20.582,17.519,26.503
		c1.379,1.043,4.81,3.298,7.187,3.144c2.15-0.139,4.501-2.127,4.492-4.717c-0.012-3.459-2.877-4.752-4.941-6.289
		c-0.91-0.677-1.658-1.697-2.471-2.246c-1.493-1.01-3.29-1.387-4.267-2.471c-1.158-1.284-1.804-3.651-2.92-5.166
		c-1.236-1.678-2.776-2.428-3.369-3.594c-1.639-3.22-1.195-7.01-2.471-10.331c1.911-0.894,3.775-4.282,6.289-4.267
		c3.168,0.019,5.005,5.368,6.738,6.963c2.705,2.49,6.485,1.107,6.289-2.246c-0.219-3.74-6.109-4.536-6.064-8.535
		c0.023-2.041,1.962-3.4,3.369-5.166c8.025-10.069,14.964-19.191,17.968-33.24c0.467-2.184,0.438-5.52,1.348-7.187
		c0.515-0.944,3.394-2.519,4.717-2.92c6.738-2.039,15.263,0.296,22.46-2.246c2.893-1.022,3.525-2.085,6.064-2.92
		c3.119-1.025,14.021-2.387,13.925-5.166c-0.126-3.649-7.476-0.111-9.882,0c-3.208,0.148-6.037-0.706-8.984-0.674
		c-6.489,0.07-11.539,3.459-17.743,4.267c-4.206,0.548-7.003-0.472-10.556-0.898c-0.594-4.096-0.601-6.844-1.348-10.556
		c-0.374-1.859-1.569-3.938-1.123-5.615c0.249-0.937,1.831-1.853,2.695-2.695c3.824-3.723,8.739-11.005,9.208-17.743
		c0.344-4.939-1.05-6.426-2.471-9.658C649.765,38.877,653.768,38.217,658.999,35.368z M431.706,67.261
		c1.111,2.755,4.996,4.232,8.086,4.043c3.852-0.237,8.462-4.387,8.535-8.759c0.081-4.849-4.585-8.394-9.209-7.636
		C433.541,55.822,429.169,60.973,431.706,67.261z M422.273,72.426c3.889-0.024,5.484-8.01-0.674-6.289
		C418.07,67.124,418.789,72.447,422.273,72.426z M402.284,74.672c-2.089,5.862,3.78,10.082,8.086,8.535
		c1.736-0.624,4.438-3.889,4.492-6.289c0.089-3.977-3.264-6.661-6.963-6.064C404.939,71.332,402.81,73.194,402.284,74.672z
		 M679.886,144.522c0.163,5.532,10.707,5.583,10.556,0c-0.082-3.03-3.754-4.881-6.738-4.267
		C680.983,140.815,679.831,142.634,679.886,144.522z M404.53,142.501c-2.926,1.112-5.708,4.147-7.861,5.615
		c-1.518-0.02-2.427,0.567-2.471,2.021c1.644,1.235,2.924-0.692,4.267-1.348c3.62-1.769,8.645-2.891,10.781-6.064
		C408.212,141.213,405.697,142.057,404.53,142.501z M642.154,146.319c-1.448,1.156-4.01,5.065-4.043,7.187
		c-0.035,2.258,2.376,5.759,3.818,6.963c2.537,2.117,8.636,3.079,12.577,1.348c4.168-1.83,7.619-5.498,5.39-11.005
		c-1.527-3.773-8.236-7.159-13.925-6.064C644.424,145.045,643.21,145.476,642.154,146.319z M439.792,155.528
		c6.308,1.403,7.436-9.028,1.123-7.861C437.123,148.368,435.771,154.633,439.792,155.528z M619.694,166.084
		c-0.309-0.01-0.493,0.106-0.674,0.225c1.316,2.845,4.191,6.381,7.636,5.615C625.621,168.692,622.213,167.832,619.694,166.084z"/>
	<path fill-rule="evenodd" clip-rule="evenodd" d="M597.908,2.577c3.014-0.916,5.786,0.351,7.636,1.348
		c0.913,2.004,2.49,2.905,2.246,5.84c-0.298,3.591-5.09,9.769-8.086,10.107c-3.058,0.345-3.023-1.466-4.267-3.369
		c-1.562-2.388-4.475-4.019-3.369-8.759C592.665,5.189,595.385,3.725,597.908,2.577z"/>
	<path fill-rule="evenodd" clip-rule="evenodd" d="M531.877,15.379c-1.17,0.886-1.953,2.321-3.594,2.246
		c-5.218-0.238-1.976-9.05,2.471-6.064C531.645,12.159,531.829,13.189,531.877,15.379z"/>
	<path fill-rule="evenodd" clip-rule="evenodd" d="M647.32,43.678c1.421,3.232,2.815,4.718,2.471,9.658
		c-0.47,6.738-5.384,14.02-9.208,17.743c-0.865,0.842-2.446,1.758-2.695,2.695c-0.446,1.677,0.749,3.756,1.123,5.615
		c0.747,3.712,0.753,6.46,1.348,10.556c3.553,0.426,6.35,1.447,10.556,0.898c6.204-0.809,11.255-4.197,17.743-4.267
		c2.947-0.032,5.775,0.822,8.984,0.674c2.406-0.111,9.756-3.649,9.882,0c0.096,2.779-10.806,4.141-13.925,5.166
		c-2.539,0.834-3.171,1.898-6.064,2.92c-7.196,2.542-15.722,0.207-22.46,2.246c-1.323,0.4-4.202,1.976-4.717,2.92
		c-0.91,1.667-0.881,5.003-1.348,7.187c-3.004,14.05-9.943,23.172-17.968,33.24c-1.407,1.766-3.346,3.124-3.369,5.166
		c-0.045,3.999,5.845,4.795,6.064,8.535c0.196,3.353-3.583,4.736-6.289,2.246c-1.733-1.595-3.57-6.944-6.738-6.963
		c-2.514-0.015-4.378,3.373-6.289,4.267c1.275,3.321,0.832,7.111,2.471,10.331c0.593,1.166,2.133,1.916,3.369,3.594
		c1.116,1.515,1.762,3.882,2.92,5.166c0.978,1.084,2.774,1.461,4.267,2.471c0.813,0.549,1.561,1.569,2.471,2.246
		c2.064,1.537,4.929,2.83,4.941,6.289c0.009,2.59-2.342,4.578-4.492,4.717c-2.378,0.153-5.808-2.102-7.187-3.144
		c-7.832-5.92-11.618-18.378-17.519-26.503c-8.188,3.324-16.745,6.567-28.748,6.513c-17.748-0.08-31.948-6.54-43.797-13.7
		c-6.651-4.019-13.885-8.98-19.989-14.599c-1.858-1.71-4.827-5.574-6.064-5.39c-1.602,0.238-1.064,2.269-1.797,4.267
		c-0.358,0.976-1.787,2.858-2.471,3.369c-0.557,0.417-2.496,1.001-2.92,1.348c-1.5,1.225-2.344,4.286-4.492,5.166
		c-0.869-1.965-2.546-3.587-1.348-6.064c0.633-1.31,2.333-0.832,3.144-2.021c1.012-1.484,0.586-3.587-0.674-4.043
		c-1.162-0.421-5.46,2.071-6.513,2.695c-2.623,1.556-5.066,4.657-7.636,4.492c-1.365-0.088-3.465-1.735-3.594-3.144
		c-0.179-1.973,2.285-3.815,2.92-4.492c1.321-1.408,2.42-2.037,3.369-3.818c-6.495-2.414-12.525-5.293-17.294-9.433
		c-3.765,1.285-7.646,2.643-11.005,4.267c-1.294,0.626-3.301,1.838-4.267,2.92c-0.762,0.853-0.992,2.207-1.797,3.144
		c-1.73,2.015-4.128,3.716-6.963,3.144c0.131-1.719,1.357-4,2.695-5.166c0.929-0.809,2.822-1.099,4.267-1.797
		c0.961-0.464,2.177-1.92,3.369-2.695c2.924-1.901,10.414-4.384,10.781-6.963c0.187-1.316-2.027-3.531-2.695-4.941
		c-0.468-0.987-0.902-2.469-1.572-3.818c-0.622-1.253-1.546-2.617-1.797-3.594c-0.766-2.987,0.98-6.916,0-10.107
		c-0.433-1.409-3.169-2.501-5.166-3.594c-2.171-1.187-3.462-2.594-5.39-3.144c-1.249-0.356-2.725-0.212-4.043-0.449
		c-1.834-0.331-3.571-1.228-5.166-1.572c-1.577-0.34-3.564,0.119-4.717-1.348c0.094-5.137,4.524-1.619,7.187-0.898
		c3.019,0.817,6.596,1.219,9.882,2.021c2.928,0.715,5.023,3.145,7.412,2.92c1.354-1.122,0.81-3.227,1.123-4.717
		c1.479-7.031,5.604-13.573,10.556-18.192c6.48-6.044,16.377-9.727,27.401-11.454c-4.718-13.746,1.221-26.597,10.332-31.219
		c4.008-2.033,9.085-2.82,13.925-3.144c6.921-0.464,14.207,1.191,21.337,1.123c5.799-0.056,11.088-1.702,16.396-2.246
		c8.959-0.918,17.879-2.069,27.85-1.572c9.842,0.49,15.796,4.75,22.235,8.984c4.522,2.973,8.857,6.309,13.251,10.107
		c0.978,0.845,3.389,3.226,4.267,3.369c1.469,0.24,4.21-1.267,6.064-1.797c2.101-0.6,4.619-1.325,6.513-1.348
		c2.692-0.032,5.032,1.484,7.412,1.572c7.9,0.294,13.248-5.321,17.069-9.209c3.82-0.176,7.706-5.799,11.679-5.84
		c2.158-0.022,4.313,1.319,4.492,3.144c0.185,1.887-2.445,4.788-4.043,5.39c-2.083,0.786-4.904,2.105-7.636,3.594
		C653.768,38.217,649.765,38.877,647.32,43.678z"/>
	<path fill-rule="evenodd" clip-rule="evenodd" d="M439.118,54.908c4.624-0.758,9.289,2.787,9.209,7.636
		c-0.073,4.372-4.683,8.523-8.535,8.759c-3.089,0.19-6.974-1.288-8.086-4.043C429.169,60.973,433.541,55.822,439.118,54.908z"/>
	<path fill-rule="evenodd" clip-rule="evenodd" d="M421.599,66.138c6.158-1.721,4.563,6.265,0.674,6.289
		C418.789,72.447,418.07,67.124,421.599,66.138z"/>
	<path fill-rule="evenodd" clip-rule="evenodd" d="M407.899,70.854c3.699-0.597,7.051,2.088,6.963,6.064
		c-0.054,2.399-2.755,5.665-4.492,6.289c-4.305,1.547-10.174-2.672-8.086-8.535C402.81,73.194,404.939,71.332,407.899,70.854z"/>
	<path fill-rule="evenodd" clip-rule="evenodd" d="M683.705,140.255c2.984-0.613,6.656,1.237,6.738,4.267
		c0.151,5.583-10.393,5.532-10.556,0C679.831,142.634,680.983,140.815,683.705,140.255z"/>
	<path fill-rule="evenodd" clip-rule="evenodd" d="M409.246,142.726c-2.135,3.173-7.16,4.295-10.781,6.064
		c-1.343,0.656-2.623,2.582-4.267,1.348c0.043-1.454,0.953-2.042,2.471-2.021c2.152-1.468,4.935-4.503,7.861-5.615
		C405.697,142.057,408.212,141.213,409.246,142.726z"/>
	<path fill-rule="evenodd" clip-rule="evenodd" d="M645.972,144.747c5.689-1.095,12.398,2.291,13.925,6.064
		c2.228,5.507-1.223,9.175-5.39,11.005c-3.942,1.731-10.04,0.77-12.577-1.348c-1.442-1.203-3.854-4.704-3.818-6.963
		c0.033-2.122,2.594-6.031,4.043-7.187C643.21,145.476,644.424,145.045,645.972,144.747z"/>
	<path fill-rule="evenodd" clip-rule="evenodd" d="M440.914,147.667c6.313-1.167,5.185,9.264-1.123,7.861
		C435.771,154.633,437.123,148.368,440.914,147.667z"/>
	<path fill-rule="evenodd" clip-rule="evenodd" d="M626.657,171.923c-3.445,0.766-6.32-2.77-7.636-5.615
		c0.181-0.119,0.365-0.234,0.674-0.225C622.213,167.832,625.621,168.692,626.657,171.923z"/>
</g>
</svg>
