<svg xmlns="http://www.w3.org/2000/svg" xmlns:xlink="http://www.w3.org/1999/xlink" viewBox="0 0 526.909 322">
  <defs>
    <style>
      .cls-1 {
        fill: #765398;
      }

      .cls-2, .cls-3, .cls-4 {
        fill: #5a3184;
      }

      .cls-2, .cls-6 {
        opacity: 0.55;
      }

      .cls-3, .cls-8 {
        opacity: 0.62;
      }

      .cls-5 {
        opacity: 0.2;
        clip-path: url(#clip-path);
      }

      .cls-7 {
        clip-path: url(#clip-path-2);
      }

      .cls-9 {
        clip-path: url(#clip-path-3);
      }

      .cls-10 {
        clip-path: url(#clip-path-4);
      }
    </style>
    <clipPath id="clip-path">
      <rect id="bg" class="cls-1" width="526.909" height="322" transform="translate(0 1379)"/>
    </clipPath>
    <clipPath id="clip-path-2">
      <path id="Path_2" data-name="Path 2" class="cls-2" d="M266.642,491.08a66,66,0,0,0-13.525,9.465,88.279,88.279,0,0,0,12.812,23.888,103.824,103.824,0,0,0,54.106,37.61,100.394,100.394,0,0,0,29.663,4.492,93.179,93.179,0,0,0,52.464-16.321c-14.952-.947-49.122-8.043-76.172-46.124A125.816,125.816,0,0,1,312.7,480.438h-3.557a90.6,90.6,0,0,0-42.5,10.642m241.1-10.407a133.646,133.646,0,0,1-13.294,23.637c-27.05,37.861-60.748,44.973-76.172,45.9A93.161,93.161,0,0,0,470.485,566.3h0a108.331,108.331,0,0,0,29.663-4.257,101.373,101.373,0,0,0,54.111-37.375,88.282,88.282,0,0,0,12.811-23.888,73.922,73.922,0,0,0-13.525-9.46,87.072,87.072,0,0,0-42.5-10.642,7.855,7.855,0,0,0-3.321,0M311.483,408.512a90.774,90.774,0,0,0-3.321,27.193,115.654,115.654,0,0,0,21.83,65.049c25.629,35.953,57.663,42.814,72.138,43.76a101.462,101.462,0,0,1-14.239-16.556,129.993,129.993,0,0,1-17.56-96.98,85.381,85.381,0,0,0-55.764-22.706c-1.186,0-2.135.235-3.085.235m138.583,22.487a140.665,140.665,0,0,1,2.623,27.674,120.452,120.452,0,0,1-20.409,70.253,88.31,88.31,0,0,1-13.761,15.61c14.69-1.182,46.273-8.043,71.665-43.76a115.125,115.125,0,0,0,21.83-65.049,90.77,90.77,0,0,0-3.321-27.193h-2.849a83.473,83.473,0,0,0-55.764,22.486m-57.9-38.332a122.9,122.9,0,0,0,0,131.992,85.122,85.122,0,0,0,18.037,19.631,81.616,81.616,0,0,0,18.037-18.92,114.256,114.256,0,0,0,19.223-66.7,114.256,114.256,0,0,0-19.223-66.7,81.779,81.779,0,0,0-18.042-18.931,90.979,90.979,0,0,0-18.037,19.631" transform="translate(-253.117 -373.051)"/>
    </clipPath>
    <clipPath id="clip-path-3">
      <path id="Path_4" data-name="Path 4" class="cls-3" d="M321.118,537.868a140.71,140.71,0,0,0,9.968,44.942,114.751,114.751,0,0,0-27.764,1.893,101.6,101.6,0,0,0,49.841,32.166,100.383,100.383,0,0,0,29.663,4.492,93.176,93.176,0,0,0,52.464-16.321c-14.952-.947-49.122-8.043-76.172-46.124a125.809,125.809,0,0,1-13.3-23.653H342.26a81.886,81.886,0,0,0-21.122,2.615m219.724-2.364a133.634,133.634,0,0,1-13.289,23.653c-27.05,37.845-60.748,44.942-76.172,45.888a93.156,93.156,0,0,0,52.207,16.086h0a108.333,108.333,0,0,0,29.663-4.257,103.08,103.08,0,0,0,49.841-31.931,103.957,103.957,0,0,0-27.764-1.893,135.5,135.5,0,0,0,10.194-44.932,94.409,94.409,0,0,0-21.122-2.364,6.128,6.128,0,0,0-3.557-.235m-54.106-9.015c-.236-1.417-.714-3.075-.95-4.492a116.291,116.291,0,0,1-20.172,61.5,88.3,88.3,0,0,1-13.761,15.61c14.69-1.182,46.273-8.043,71.666-43.76A116.874,116.874,0,0,0,544.9,498.6a111.371,111.371,0,0,0-58.141,27.91M363.361,555.6c25.629,35.952,57.663,42.814,72.138,43.76A101.443,101.443,0,0,1,421.261,582.8a120.51,120.51,0,0,1-20.172-59.841c-.236,1.182-.714,2.615-.95,3.786A108.5,108.5,0,0,0,342,498.841a116.876,116.876,0,0,0,21.358,56.771m42.952-48.963c0,2.128-.236,4.257-.236,6.621a115.991,115.991,0,0,0,19.223,66A85.134,85.134,0,0,0,443.332,598.9a81.608,81.608,0,0,0,18.032-18.931,114.254,114.254,0,0,0,19.223-66.7c0-2.615,0-5.439-.236-7.808-13.761-35.006-37.018-49.434-37.018-49.434a111.836,111.836,0,0,0-37.019,50.616" transform="translate(-303.322 -456.022)"/>
    </clipPath>
    <clipPath id="clip-path-4">
      <path id="Path_6" data-name="Path 6" class="cls-4" d="M598.412,681.482c-27.05,37.846-60.748,44.942-76.172,45.889a93.158,93.158,0,0,0,52.207,16.086h0a108.31,108.31,0,0,0,29.663-4.257,96.947,96.947,0,0,0,13.289-4.968,78.673,78.673,0,0,0-23.257-2.128,91.241,91.241,0,0,0,5.7-52.985,7.836,7.836,0,0,1-1.422,2.364M434.205,732.339a80.332,80.332,0,0,0-23.493,2.128,113.957,113.957,0,0,0,13.525,4.968,100.389,100.389,0,0,0,29.663,4.492,93.177,93.177,0,0,0,52.464-16.321c-15.188-.947-49.358-8.043-76.409-46.124-.472-.711-1.186-1.658-1.663-2.364a94.7,94.7,0,0,0,5.934,53.22m111.056-40.209a.866.866,0,0,0-.236-.711,103.485,103.485,0,0,1-8.782,14.9,88.316,88.316,0,0,1-13.762,15.61c14.69-1.182,46.273-8.043,71.666-43.76,1.422-2.128,2.849-4.021,4.034-6.15a36.758,36.758,0,0,0-4.034-.235,74.783,74.783,0,0,0-48.886,20.342M430.165,672.022c1.186,2.128,2.623,4.021,4.035,6.15,25.629,35.952,57.663,42.813,72.138,43.76A101.443,101.443,0,0,1,492.1,705.376a89.416,89.416,0,0,1-8.305-14.428c0,.471-.236.947-.236,1.417a73.968,73.968,0,0,0-49.122-20.342,21.293,21.293,0,0,0-4.271,0M485.929,682.9a106.353,106.353,0,0,0,10.2,18.92,85.121,85.121,0,0,0,18.037,19.631,81.608,81.608,0,0,0,18.037-18.925A88.192,88.192,0,0,0,542.648,682.9a77.915,77.915,0,0,0-28.478-41.391A85.757,85.757,0,0,0,485.929,682.9" transform="translate(-410.712 -641.508)"/>
    </clipPath>
  </defs>
  <g id="brand-bg" class="cls-5" transform="translate(0 -1379)">
    <g id="brand" transform="translate(35.736 1390)">
      <g id="Group_2" data-name="Group 2" class="cls-6" transform="translate(65.369 28.38)">
        <path id="Path_1" data-name="Path 1" class="cls-2" d="M266.642,491.08a66,66,0,0,0-13.525,9.465,88.279,88.279,0,0,0,12.812,23.888,103.824,103.824,0,0,0,54.106,37.61,100.394,100.394,0,0,0,29.663,4.492,93.179,93.179,0,0,0,52.464-16.321c-14.952-.947-49.122-8.043-76.172-46.124A125.816,125.816,0,0,1,312.7,480.438h-3.557a90.6,90.6,0,0,0-42.5,10.642m241.1-10.407a133.646,133.646,0,0,1-13.294,23.637c-27.05,37.861-60.748,44.973-76.172,45.9A93.161,93.161,0,0,0,470.485,566.3h0a108.331,108.331,0,0,0,29.663-4.257,101.373,101.373,0,0,0,54.111-37.375,88.282,88.282,0,0,0,12.811-23.888,73.922,73.922,0,0,0-13.525-9.46,87.072,87.072,0,0,0-42.5-10.642,7.855,7.855,0,0,0-3.321,0M311.483,408.512a90.774,90.774,0,0,0-3.321,27.193,115.654,115.654,0,0,0,21.83,65.049c25.629,35.953,57.663,42.814,72.138,43.76a101.462,101.462,0,0,1-14.239-16.556,129.993,129.993,0,0,1-17.56-96.98,85.381,85.381,0,0,0-55.764-22.706c-1.186,0-2.135.235-3.085.235m138.583,22.487a140.665,140.665,0,0,1,2.623,27.674,120.452,120.452,0,0,1-20.409,70.253,88.31,88.31,0,0,1-13.761,15.61c14.69-1.182,46.273-8.043,71.665-43.76a115.125,115.125,0,0,0,21.83-65.049,90.77,90.77,0,0,0-3.321-27.193h-2.849a83.473,83.473,0,0,0-55.764,22.486m-57.9-38.332a122.9,122.9,0,0,0,0,131.992,85.122,85.122,0,0,0,18.037,19.631,81.616,81.616,0,0,0,18.037-18.92,114.256,114.256,0,0,0,19.223-66.7,114.256,114.256,0,0,0-19.223-66.7,81.779,81.779,0,0,0-18.042-18.931,90.979,90.979,0,0,0-18.037,19.631" transform="translate(-253.117 -373.051)"/>
        <g id="Group_1" data-name="Group 1" class="cls-7" transform="translate(0)">
          <rect id="Rectangle_1" data-name="Rectangle 1" class="cls-4" width="314.185" height="193.72" transform="translate(0)"/>
        </g>
      </g>
      <g id="Group_4" data-name="Group 4" class="cls-8" transform="translate(82.456 56.525)">
        <path id="Path_3" data-name="Path 3" class="cls-3" d="M321.118,537.868a140.71,140.71,0,0,0,9.968,44.942,114.751,114.751,0,0,0-27.764,1.893,101.6,101.6,0,0,0,49.841,32.166,100.383,100.383,0,0,0,29.663,4.492,93.176,93.176,0,0,0,52.464-16.321c-14.952-.947-49.122-8.043-76.172-46.124a125.809,125.809,0,0,1-13.3-23.653H342.26a81.886,81.886,0,0,0-21.122,2.615m219.724-2.364a133.634,133.634,0,0,1-13.289,23.653c-27.05,37.845-60.748,44.942-76.172,45.888a93.156,93.156,0,0,0,52.207,16.086h0a108.333,108.333,0,0,0,29.663-4.257,103.08,103.08,0,0,0,49.841-31.931,103.957,103.957,0,0,0-27.764-1.893,135.5,135.5,0,0,0,10.194-44.932,94.409,94.409,0,0,0-21.122-2.364,6.128,6.128,0,0,0-3.557-.235m-54.106-9.015c-.236-1.417-.714-3.075-.95-4.492a116.291,116.291,0,0,1-20.172,61.5,88.3,88.3,0,0,1-13.761,15.61c14.69-1.182,46.273-8.043,71.666-43.76A116.874,116.874,0,0,0,544.9,498.6a111.371,111.371,0,0,0-58.141,27.91M363.361,555.6c25.629,35.952,57.663,42.814,72.138,43.76A101.443,101.443,0,0,1,421.261,582.8a120.51,120.51,0,0,1-20.172-59.841c-.236,1.182-.714,2.615-.95,3.786A108.5,108.5,0,0,0,342,498.841a116.876,116.876,0,0,0,21.358,56.771m42.952-48.963c0,2.128-.236,4.257-.236,6.621a115.991,115.991,0,0,0,19.223,66A85.134,85.134,0,0,0,443.332,598.9a81.608,81.608,0,0,0,18.032-18.931,114.254,114.254,0,0,0,19.223-66.7c0-2.615,0-5.439-.236-7.808-13.761-35.006-37.018-49.434-37.018-49.434a111.836,111.836,0,0,0-37.019,50.616" transform="translate(-303.322 -456.022)"/>
        <g id="Group_3" data-name="Group 3" class="cls-9" transform="translate(0 0)">
          <rect id="Rectangle_2" data-name="Rectangle 2" class="cls-4" width="280.015" height="165.34" transform="translate(0 0.005)"/>
        </g>
      </g>
      <g id="Group_6" data-name="Group 6" transform="translate(119.008 121.198)">
        <path id="Path_5" data-name="Path 5" class="cls-4" d="M598.412,681.482c-27.05,37.846-60.748,44.942-76.172,45.889a93.158,93.158,0,0,0,52.207,16.086h0a108.31,108.31,0,0,0,29.663-4.257,96.947,96.947,0,0,0,13.289-4.968,78.673,78.673,0,0,0-23.257-2.128,91.241,91.241,0,0,0,5.7-52.985,7.836,7.836,0,0,1-1.422,2.364M434.205,732.339a80.332,80.332,0,0,0-23.493,2.128,113.957,113.957,0,0,0,13.525,4.968,100.389,100.389,0,0,0,29.663,4.492,93.177,93.177,0,0,0,52.464-16.321c-15.188-.947-49.358-8.043-76.409-46.124-.472-.711-1.186-1.658-1.663-2.364a94.7,94.7,0,0,0,5.934,53.22m111.056-40.209a.866.866,0,0,0-.236-.711,103.485,103.485,0,0,1-8.782,14.9,88.316,88.316,0,0,1-13.762,15.61c14.69-1.182,46.273-8.043,71.666-43.76,1.422-2.128,2.849-4.021,4.034-6.15a36.758,36.758,0,0,0-4.034-.235,74.783,74.783,0,0,0-48.886,20.342M430.165,672.022c1.186,2.128,2.623,4.021,4.035,6.15,25.629,35.952,57.663,42.813,72.138,43.76A101.443,101.443,0,0,1,492.1,705.376a89.416,89.416,0,0,1-8.305-14.428c0,.471-.236.947-.236,1.417a73.968,73.968,0,0,0-49.122-20.342,21.293,21.293,0,0,0-4.271,0M485.929,682.9a106.353,106.353,0,0,0,10.2,18.92,85.121,85.121,0,0,0,18.037,19.631,81.608,81.608,0,0,0,18.037-18.925A88.192,88.192,0,0,0,542.648,682.9a77.915,77.915,0,0,0-28.478-41.391A85.757,85.757,0,0,0,485.929,682.9" transform="translate(-410.712 -641.508)"/>
        <g id="Group_5" data-name="Group 5" class="cls-10" transform="translate(0 0)">
          <rect id="Rectangle_3" data-name="Rectangle 3" class="cls-4" width="206.928" height="102.184" transform="translate(-0.005 0.235)"/>
        </g>
      </g>
      <g id="Group_8" data-name="Group 8" transform="translate(119.008 121.198)">
        <path id="Path_7" data-name="Path 7" class="cls-4" d="M598.412,681.482c-27.05,37.846-60.748,44.942-76.172,45.889a93.158,93.158,0,0,0,52.207,16.086h0a108.31,108.31,0,0,0,29.663-4.257,96.947,96.947,0,0,0,13.289-4.968,78.673,78.673,0,0,0-23.257-2.128,91.241,91.241,0,0,0,5.7-52.985,7.836,7.836,0,0,1-1.422,2.364M434.205,732.339a80.332,80.332,0,0,0-23.493,2.128,113.957,113.957,0,0,0,13.525,4.968,100.389,100.389,0,0,0,29.663,4.492,93.177,93.177,0,0,0,52.464-16.321c-15.188-.947-49.358-8.043-76.409-46.124-.472-.711-1.186-1.658-1.663-2.364a94.7,94.7,0,0,0,5.934,53.22m111.056-40.209a.866.866,0,0,0-.236-.711,103.485,103.485,0,0,1-8.782,14.9,88.316,88.316,0,0,1-13.762,15.61c14.69-1.182,46.273-8.043,71.666-43.76,1.422-2.128,2.849-4.021,4.034-6.15a36.758,36.758,0,0,0-4.034-.235,74.783,74.783,0,0,0-48.886,20.342M430.165,672.022c1.186,2.128,2.623,4.021,4.035,6.15,25.629,35.952,57.663,42.813,72.138,43.76A101.443,101.443,0,0,1,492.1,705.376a89.416,89.416,0,0,1-8.305-14.428c0,.471-.236.947-.236,1.417a73.968,73.968,0,0,0-49.122-20.342,21.293,21.293,0,0,0-4.271,0M485.929,682.9a106.353,106.353,0,0,0,10.2,18.92,85.121,85.121,0,0,0,18.037,19.631,81.608,81.608,0,0,0,18.037-18.925A88.192,88.192,0,0,0,542.648,682.9a77.915,77.915,0,0,0-28.478-41.391A85.757,85.757,0,0,0,485.929,682.9" transform="translate(-410.712 -641.508)"/>
        <g id="Group_7" data-name="Group 7" class="cls-10" transform="translate(0 0)">
          <rect id="Rectangle_4" data-name="Rectangle 4" class="cls-4" width="206.928" height="102.184" transform="translate(-0.005 0.235)"/>
        </g>
      </g>
      <path id="Path_9" data-name="Path 9" class="cls-4" d="M675.676,906.9A34.966,34.966,0,0,0,689.2,896.02a20.329,20.329,0,0,0,11.154,9.225C708.424,908.32,684.93,933.149,675.676,906.9Z" transform="translate(-466.503 -687.867)"/>
      <path id="Path_10" data-name="Path 10" class="cls-4" d="M610.827,941.653a15.368,15.368,0,0,0,18.51-4.492s5.246,13.717,16.609,12.3a27.009,27.009,0,0,0,17.8-12.3,20.358,20.358,0,0,0,18.273,5.23s-10.44,22.487-22.78,12.77c0,0-12.339,20.813-26.1,2.364C632.9,957.738,617,963.653,610.827,941.653Z" transform="translate(-423.721 -714.856)"/>
      <path id="Path_11" data-name="Path 11" class="cls-4" d="M542.493,963.246a40.846,40.846,0,0,0,19.223-3.075,24.3,24.3,0,0,0,8.783,13.958C578.326,980.984,542.493,991.631,542.493,963.246Z" transform="translate(-378.644 -730.011)"/>
      <path id="Path_12" data-name="Path 12" class="cls-4" d="M792.821,973.688a45.828,45.828,0,0,0,12.811-15.61,21.417,21.417,0,0,0,15.188,4.706C830.789,962.57,809.908,995.453,792.821,973.688Z" transform="translate(-543.781 -728.631)"/>
      <path id="Path_13" data-name="Path 13" class="cls-4" d="M576.66,1017.744s21.83.47,30.849-9.225a15.216,15.216,0,0,0,15.66,10.172,22.7,22.7,0,0,0,16.374-10.407s16.61,11.829,27.764,9.461c0,0-18.745,16.556-31.085,6.62,0,0-12.339,20.813-26.1,2.364C610.122,1026.969,585.442,1034.541,576.66,1017.744Z" transform="translate(-401.18 -761.584)"/>
      <path id="Path_14" data-name="Path 14" class="cls-4" d="M743.313,1007.585s40.817,12.551,53.157-39.744c0,0,22.307,9.225,17.8,40.921s6.17,40.449,6.17,40.449S784.839,1060.324,743.313,1007.585Z" transform="translate(-511.12 -734.533)"/>
      <path id="Path_15" data-name="Path 15" class="cls-4" d="M532.174,1018.044s-39.39,12.551-51.494-39.744c0,0-21.594,9.225-17.313,40.921s-5.944,40.45-5.944,40.45S492.05,1070.783,532.174,1018.044Z" transform="translate(-322.524 -741.4)"/>
      <path id="Path_16" data-name="Path 16" class="cls-4" d="M145.141,752.155a30.023,30.023,0,0,0-26.814,35.952c2.371,13.958,12.591,22.487,22.072,21.76A18.823,18.823,0,0,0,155.35,783.61a15.983,15.983,0,0,0-13.053-9.46c-8.541.711-8.782,8.279-10.2,15.375-11.39,1.417-7.345-15.851-4.271-20.813a27.279,27.279,0,0,1,13.525-9.7c16.61-5.23,32.748,6.861,39.631,25.781a50.91,50.91,0,0,1-4.984,47.306c1.186-10.642-6.406-21.054-13.761-22.487-.472,1.182.472,3.31,0,4.492-10.918-.235-16.846,7.567-13.053,19.161,1.663-4.492,1.9-9.225,6.17-11.589,7.345-3.786,15.66,2.615,16.374,13.958,5.7-2.84,11.39-1.893,15.9-4.968s6.406-14.9,7.119-20.343a81.938,81.938,0,0,0-4.271-35.952c-16.61-47.306-66.682-47.541-95.159-61.974a23.222,23.222,0,0,1-13.289-18.926,11.619,11.619,0,0,1,7.833-12.064c2.849-.471,6.883.471,6.642,5.438-3.321,2.129-2.623-2.128-6.406,0-4.984,2.84-.714,12.065,5.246,10.883a8.016,8.016,0,0,0,5.934-6.385A11.634,11.634,0,0,0,89.881,678.8C78.963,679.978,76.119,694.17,83,704.107c-13.289-5.23-21.358-25.782-16.61-40.45a26.837,26.837,0,0,1,21.122-19.632,21.511,21.511,0,0,1,24.207,15.61,16.247,16.247,0,0,1-.95,10.407c-1.663,3.31-7.833,4.706-5.246,11.829,9.019,1.658,12.591-9.936,10.676-18.449a32.43,32.43,0,0,0-12.591-17.257,24.237,24.237,0,0,0-24.658-1.893c-14,6.411-21.61,25.1-16.148,44.257a55.47,55.47,0,0,0,24.443,30.038,129.532,129.532,0,0,0,31.326,14.428c23.729,7.808,47.695,11.829,61.7,30.985a61.273,61.273,0,0,1,10.2,23.418c3.557,16.086-1.422,28.621-6.642,39.744a60.352,60.352,0,0,1-2.623,5.679c10.2-20.578,4.034-59.37-14.239-73.8a43.974,43.974,0,0,0-44.594-4.257c-19.695,8.043-28.95,29.092-27.764,50.857.236.947.714.947.472.235a48.448,48.448,0,0,1,50.061-53.7Z" transform="translate(-61.021 -519.684)"/>
      <path id="Path_17" data-name="Path 17" class="cls-4" d="M471.856,348.511s27.764,3.546,41.289,21.76c0,0,8.305-30.038,24.443-43.284,0,0-17.8-33.589-47.936-37.61,0,0-23.257,29.332-17.8,56.766" transform="translate(-331.495 -289.376)"/>
      <path id="Path_18" data-name="Path 18" class="cls-4" d="M760.745,330.935s20.645,20.107,22.071,43.284c0,0,23.017-19.4,43.189-20.342,0,0,3.557-38.557-18.987-60.317,0,0-34.626,9.46-45.088,35.241" transform="translate(-522.618 -292.143)"/>
      <path id="Path_19" data-name="Path 19" class="cls-4" d="M268.542,593.385s20.172-13.011,38.2-8.514c0,0-9.018-24.835-4.722-42.578,0,0-28.241-12.551-50.308,1.658,0,0-1.186,32.423,15.661,47.782" transform="translate(-186.799 -452.058)"/>
      <path id="Path_20" data-name="Path 20" class="cls-4" d="M1023.014,536.6s5.457,24.579-4.271,41.632c0,0,24.915-1.658,39.39,8.278,0,0,19.935-24.835,14.238-51.8,0,0-28.477-11.353-47.458,1.182" transform="translate(-692.817 -447.34)"/>
      <path id="Path_21" data-name="Path 21" class="cls-4" d="M1034.854,746.362a31.325,31.325,0,0,1,31.8,34.059c-1.186,14.193-11.154,23.417-21.358,23.417a19.405,19.405,0,0,1-18.273-25.311,16.725,16.725,0,0,1,13.053-10.406c9.019,0,9.968,7.567,12.339,14.643,12.1.711,6.17-16.321,2.623-21.054a30.215,30.215,0,0,0-15.188-8.754c-18.037-4.021-33.934,9.225-39.632,28.621a49.33,49.33,0,0,0,9.733,47.065c-2.135-10.642,4.721-21.525,12.339-23.418.714,1.182-.236,3.31.472,4.492,11.39-1.182,18.745,6.385,15.661,18.214-2.371-4.492-2.849-9.225-7.592-11.118-8.069-3.075-16.374,3.786-16.137,15.139-6.406-2.615-12.34-1.182-17.314-3.786-5.246-2.84-8.3-14.428-9.49-19.872a79.2,79.2,0,0,1,1.186-36.188c13.053-48.488,66.446-52.295,95.159-68.83a22.173,22.173,0,0,0,12.1-19.872,12,12,0,0,0-9.255-11.353c-2.849-.235-7.344.947-6.642,5.915,3.8,1.893,2.624-2.364,6.884-.471,5.456,2.364,1.9,12.064-4.506,11.353a8.567,8.567,0,0,1-6.883-5.915,12.1,12.1,0,0,1,10.86-13.445c11.867.471,16.138,14.428,9.732,24.835,13.525-6.15,20.173-27.439,14-41.867a29.531,29.531,0,0,0-24.207-18.214,22.516,22.516,0,0,0-24.206,17.257,14.884,14.884,0,0,0,1.9,10.172c2.134,3.31,8.782,4.021,6.641,11.353-9.49,2.364-14.475-9.225-13.052-17.738a31.854,31.854,0,0,1,11.867-17.979,26.606,26.606,0,0,1,25.865-3.546c15.424,5.229,25.392,23.418,21.359,43.049a55.4,55.4,0,0,1-23.258,31.931,131.031,131.031,0,0,1-31.8,16.557c-24.443,9.46-49.357,15.139-62.647,35.482a57.723,57.723,0,0,0-8.541,24.129,55.987,55.987,0,0,0,10.918,39.263c.236.235,2.849,5.439,3.085,5.439-12.591-19.872-9.727-59.135,8.3-74.745,12.1-10.642,29.663-12.77,46.987-7.321,21.83,6.62,33.462,26.963,33.934,48.963,0,.947-.714.947-.472.471a51.815,51.815,0,0,0-58.351-50.616Z" transform="translate(-671.427 -513.174)"/>
      <path id="Path_22" data-name="Path 22" class="cls-4" d="M707.945,1129.612c36.305,12.771,37.969,55.584,49.841,79.236a17.517,17.517,0,0,0,14.69,10.642,8.96,8.96,0,0,0,8.782-6.861c.236-2.363-.714-5.914-4.271-5.438-1.422,2.84,1.663,2.128.236,5.438-1.9,4.257-9.018.947-8.305-4.256a6.472,6.472,0,0,1,4.507-5.23,9.2,9.2,0,0,1,9.727,9.225c-.473,9.46-11.154,12.3-18.746,6.62a25.864,25.864,0,0,0,31.085,13.246,21.672,21.672,0,0,0,14-18.449,18.989,18.989,0,0,0-12.591-20.343,10.325,10.325,0,0,0-7.833,1.182c-2.371,1.658-3.321,6.861-8.541,4.706-1.422-7.807,7.119-11.117,13.525-9.7a23.717,23.717,0,0,1,13.289,10.407,23.329,23.329,0,0,1,2.135,21.054,26.362,26.362,0,0,1-32.748,15.139,43.609,43.609,0,0,1-23.493-20.107,114.193,114.193,0,0,1-11.868-26.257c-6.642-20.108-10.44-40.45-25.392-51.8a43.847,43.847,0,0,0-18.037-8.043" transform="translate(-481.207 -840.323)"/>
      <path id="Path_23" data-name="Path 23" class="cls-4" d="M513.948,1135.191c-33.934,11.353-35.833,54.878-46.987,78.3a15.518,15.518,0,0,1-13.761,10.171,9.054,9.054,0,0,1-8.305-7.566c-.236-2.364.713-5.915,4.034-5.438,1.422,3.075-1.663,2.128-.236,5.678,1.663,4.492,8.541,1.418,7.833-3.786a6.3,6.3,0,0,0-4.27-5.438c-5.934-1.182-9.491,5.438-9.254,8.989a10.6,10.6,0,0,0,17.559,7.807,22.423,22.423,0,0,1-29.186,11.829,23.5,23.5,0,0,1-13.053-19.631c-.713-7.567,3.085-17.979,11.867-20.107a9.324,9.324,0,0,1,7.345,1.417c2.371,1.658,3.085,7.1,8.069,5.439,1.422-7.807-6.642-11.589-12.591-10.406a22.186,22.186,0,0,0-12.591,9.936,24.51,24.51,0,0,0-2.135,21.29A25.494,25.494,0,0,0,448.9,1240.7a39.753,39.753,0,0,0,22.072-19.161,121.218,121.218,0,0,0,11.154-26.017c6.17-20.107,9.968-40.685,23.966-51.563a39.519,39.519,0,0,1,16.846-7.321" transform="translate(-295.757 -844.009)"/>
    </g>
  </g>
</svg>
